<?xml version="1.0" standalone="no"?><!DOCTYPE svg PUBLIC "-//W3C//DTD SVG 1.1//EN" "http://www.w3.org/Graphics/SVG/1.1/DTD/svg11.dtd"><svg t="1768828315933" class="icon" viewBox="0 0 1504 1024" version="1.1" xmlns="http://www.w3.org/2000/svg" p-id="10885" xmlns:xlink="http://www.w3.org/1999/xlink" width="293.75" height="200"><path d="M0 0h1263.594019v679.71105H0z" fill="#3F3D56" p-id="10886"></path><path d="M228.427472 95.828082h11.142733v17.828951h-11.142733zM266.313631 91.371567h11.142733v17.82895h-11.142733zM286.369396 91.371567h11.142733v17.82895h-11.142733zM286.369396 144.856974h11.142733v17.828951h-11.142733zM308.656306 118.113548h11.142733v17.828951h-11.142733zM308.656306 147.085232h11.142733v17.828951h-11.142733zM286.369396 202.798897h11.142733v17.828951h-11.142733zM308.656306 231.770581h11.142733v17.828951h-11.142733zM286.369396 340.969654h11.142733v17.828951h-11.142733zM266.313631 231.770581h11.142733v17.828951h-11.142733zM228.427472 124.799766h11.142733v17.82895h-11.142733zM228.427472 403.369537h11.142733v17.828951h-11.142733zM228.427472 461.31146h11.142733v17.828951h-11.142733zM228.427472 490.283144h11.142733v17.82895h-11.142733zM223.970957 155.999707h15.599248v2.228258h-15.599248zM284.141138 182.741689h15.599248v2.228258h-15.599248zM223.970957 298.62698h15.599248v2.228257h-15.599248zM223.970957 323.140704h15.599248v2.228257h-15.599248zM284.141138 465.76942h15.599248v2.228258h-15.599248zM266.313631 519.254828h15.599249v2.228257h-15.599249zM228.427472 176.056916V180.513431h4.456516v8.914476h-4.456516v4.456515h11.142733v-17.827506h-11.142733zM266.313631 144.856974v4.456516h4.456516v8.914475h-4.456516v4.456516h11.142733v-17.827507h-11.142733zM308.656306 173.827214v4.457959h4.456515v8.914476h-4.456515v4.456515h11.142733V173.827214h-11.142733zM308.656306 260.742265v4.456515h4.456515v8.914476h-4.456515v4.456515h11.142733v-17.827506h-11.142733zM308.656306 289.712504v4.45796h4.456515v8.914475h-4.456515v4.456516h11.142733v-17.828951h-11.142733zM308.656306 200.57064v4.456515h4.456515v8.914476h-4.456515v4.457959h11.142733v-17.82895h-11.142733zM286.369396 118.113548v4.45796h4.457959v8.913031h-4.457959v4.45796h11.144177V118.113548h-11.144177zM286.369396 260.742265h11.142733v17.82895h-11.142733zM286.369396 314.227672h11.142733v17.828951h-11.142733zM286.369396 287.484247v4.456515h4.457959v8.914475h-4.457959v4.45796h11.144177v-17.82895h-11.144177zM266.313631 173.827214v4.457959h4.456516v8.914476h-4.456516v4.456515h11.142733V173.827214h-11.142733zM266.313631 202.798897v4.45796h4.456516v8.913031h-4.456516v4.45796h11.142733v-17.828951h-11.142733zM266.313631 289.712504h11.142733v17.828951h-11.142733zM266.313631 260.742265v4.456515h4.456516v8.914476h-4.456516v4.456515h11.142733v-17.827506h-11.142733zM266.313631 347.655872h11.142733v17.82895h-11.142733zM266.313631 318.684188v4.456516h4.456516v8.914475h-4.456516v4.45796h11.142733v-17.828951h-11.142733zM266.313631 405.597795h11.142733v17.82895h-11.142733zM286.369396 401.141279h11.142733v17.828951h-11.142733zM266.313631 376.626111v4.45796h4.456516v8.914475h-4.456516v4.456516h11.142733v-17.828951h-11.142733zM308.656306 376.626111v4.45796h4.456515v8.914475h-4.456515v4.456516h11.142733v-17.828951h-11.142733zM422.311894 118.113548h11.142734v17.828951h-11.142734zM422.311894 147.085232h11.142734v17.828951h-11.142734zM422.311894 231.770581h11.142734v17.828951h-11.142734zM422.311894 173.827214v4.457959h4.45796v8.914476h-4.45796v4.456515h11.142734V173.827214h-11.142734zM422.311894 260.742265v4.456515h4.45796v8.914476h-4.45796v4.456515h11.142734v-17.827506h-11.142734zM422.311894 289.712504v4.45796h4.45796v8.914475h-4.45796v4.456516h11.142734v-17.828951h-11.142734zM422.311894 200.57064v4.456515h4.45796v8.914476h-4.45796v4.457959h11.142734v-17.82895h-11.142734zM422.311894 376.626111v4.45796h4.45796v8.914475h-4.45796v4.456516h11.142734v-17.828951h-11.142734zM266.313631 463.541162h11.142733v17.828951h-11.142733zM286.369396 430.112963h11.142733v17.82895h-11.142733zM266.313631 539.312036h11.142733v17.828951h-11.142733zM286.369396 485.826628h11.142733v17.828951h-11.142733zM266.313631 434.569478v4.456516h4.456516v8.914475h-4.456516v4.45796h11.142733v-17.828951h-11.142733zM266.313631 570.511977v4.456516h4.456516v8.914475h-4.456516v4.456516h11.142733v-17.827507h-11.142733zM388.883695 91.371567h11.142733v17.82895h-11.142733zM388.883695 231.770581h11.142733v17.828951h-11.142733zM388.883695 519.254828h15.599249v2.228257H388.883695zM388.883695 144.856974v4.456516h4.45796v8.914475h-4.45796v4.456516h11.142733v-17.827507h-11.142733zM388.883695 173.827214v4.457959h4.45796v8.914476h-4.45796v4.456515h11.142733V173.827214h-11.142733zM388.883695 202.798897v4.45796h4.45796v8.913031h-4.45796v4.45796h11.142733v-17.828951h-11.142733zM388.883695 289.712504h11.142733v17.828951h-11.142733zM388.883695 260.742265v4.456515h4.45796v8.914476h-4.45796v4.456515h11.142733v-17.827506h-11.142733zM388.883695 347.655872h11.142733v17.82895h-11.142733zM388.883695 318.684188v4.456516h4.45796v8.914475h-4.45796v4.45796h11.142733v-17.828951h-11.142733zM388.883695 405.597795h11.142733v17.82895h-11.142733zM388.883695 376.626111v4.45796h4.45796v8.914475h-4.45796v4.456516h11.142733v-17.828951h-11.142733zM388.883695 463.541162h11.142733v17.828951h-11.142733zM388.883695 539.312036h11.142733v17.828951h-11.142733zM388.883695 434.569478v4.456516h4.45796v8.914475h-4.45796v4.45796h11.142733v-17.828951h-11.142733zM388.883695 570.511977v4.456516h4.45796v8.914475h-4.45796v4.456516h11.142733v-17.827507h-11.142733zM442.369103 91.371567h11.142733v17.82895h-11.142733zM442.369103 231.770581h11.142733v17.828951h-11.142733zM442.369103 519.254828h15.599249v2.228257h-15.599249zM442.369103 144.856974v4.456516h4.45796v8.914475h-4.45796v4.456516h11.142733v-17.827507h-11.142733zM442.369103 173.827214v4.457959h4.45796v8.914476h-4.45796v4.456515h11.142733V173.827214h-11.142733zM442.369103 202.798897v4.45796h4.45796v8.913031h-4.45796v4.45796h11.142733v-17.828951h-11.142733zM442.369103 289.712504h11.142733v17.828951h-11.142733zM442.369103 260.742265v4.456515h4.45796v8.914476h-4.45796v4.456515h11.142733v-17.827506h-11.142733zM442.369103 347.655872h11.142733v17.82895h-11.142733zM442.369103 318.684188v4.456516h4.45796v8.914475h-4.45796v4.45796h11.142733v-17.828951h-11.142733zM442.369103 405.597795h11.142733v17.82895h-11.142733zM442.369103 376.626111v4.45796h4.45796v8.914475h-4.45796v4.456516h11.142733v-17.828951h-11.142733zM442.369103 463.541162h11.142733v17.828951h-11.142733zM442.369103 539.312036h11.142733v17.828951h-11.142733zM442.369103 434.569478v4.456516h4.45796v8.914475h-4.45796v4.45796h11.142733v-17.828951h-11.142733zM442.369103 570.511977v4.456516h4.45796v8.914475h-4.45796v4.456516h11.142733v-17.827507h-11.142733zM286.369396 539.312036v4.456516h4.457959v8.914475h-4.457959v4.456515h11.144177v-17.827506h-11.144177zM286.369396 568.28372v4.456515h4.457959v8.914475h-4.457959v4.456516h11.144177v-17.827506h-11.144177zM228.427472 231.770581v4.456516h4.456516v8.914475h-4.456516v4.45796h11.142733v-17.828951h-11.142733zM228.427472 345.427614v4.456515h4.456516v8.914476h-4.456516v4.456515h11.142733v-17.827506h-11.142733zM228.427472 374.397853v4.45796h4.456516v8.914475h-4.456516v4.456516h11.142733v-17.828951h-11.142733zM228.427472 432.341221v4.456515h4.456516v8.914476h-4.456516v4.456515h11.142733v-17.827506h-11.142733zM228.427472 514.796868v4.45796h4.456516v8.914475h-4.456516v4.456515h11.142733v-17.82895h-11.142733zM228.427472 539.312036v4.456516h4.456516v8.914475h-4.456516v4.456515h11.142733v-17.827506h-11.142733zM344.312763 95.828082h11.142733v17.828951h-11.142733zM344.312763 124.799766h11.142733v17.82895h-11.142733zM339.856247 155.999707h15.599249v2.228258H339.856247zM339.856247 298.62698h15.599249v2.228257H339.856247zM339.856247 323.140704h15.599249v2.228257H339.856247zM344.312763 176.056916V180.513431h4.456515v8.914476h-4.456515v4.456515h11.142733v-17.827506h-11.142733zM344.312763 231.770581v4.456516h4.456515v8.914475h-4.456515v4.45796h11.142733v-17.828951h-11.142733zM344.312763 345.427614v4.456515h4.456515v8.914476h-4.456515v4.456515h11.142733v-17.827506h-11.142733zM471.340786 289.712504h11.142734v17.828951h-11.142734zM471.340786 318.684188h11.142734v17.828951h-11.142734zM466.882827 349.884129h15.599248v2.228258h-15.599248zM466.882827 492.511402h15.599248v2.228258h-15.599248zM466.882827 517.02657h15.599248v2.228258h-15.599248zM471.340786 369.941338v4.456515h4.456516v8.914476h-4.456516v4.457959h11.142734v-17.82895h-11.142734zM471.340786 425.655003v4.45796h4.456516v8.913031h-4.456516v4.45796h11.142734v-17.828951h-11.142734zM471.340786 539.312036v4.456516h4.456516v8.914475h-4.456516v4.456515h11.142734v-17.827506h-11.142734zM506.997244 95.828082h11.142733v17.828951h-11.142733zM544.883402 91.371567h11.142734v17.82895h-11.142734zM564.940611 91.371567h11.142733v17.82895h-11.142733zM564.940611 144.856974h11.142733v17.828951h-11.142733zM587.226077 118.113548h11.142733v17.828951h-11.142733zM587.226077 147.085232h11.142733v17.828951h-11.142733zM564.940611 202.798897h11.142733v17.828951h-11.142733zM587.226077 231.770581h11.142733v17.828951h-11.142733zM564.940611 340.969654h11.142733v17.828951h-11.142733zM544.883402 231.770581h11.142734v17.828951h-11.142734zM506.997244 124.799766h11.142733v17.82895h-11.142733zM506.997244 403.369537h11.142733v17.828951h-11.142733zM506.997244 461.31146h11.142733v17.828951h-11.142733zM506.997244 490.283144h11.142733v17.82895h-11.142733zM502.540728 155.999707h15.599249v2.228258h-15.599249zM562.710909 182.741689h15.599249v2.228258H562.710909zM502.540728 298.62698h15.599249v2.228257h-15.599249zM502.540728 323.140704h15.599249v2.228257h-15.599249zM562.710909 465.76942h15.599249v2.228258H562.710909zM544.883402 519.254828h15.599249v2.228257h-15.599249zM506.997244 176.056916V180.513431h4.457959v8.914476h-4.457959v4.456515h11.142733v-17.827506h-11.142733zM544.883402 144.856974v4.456516h4.456516v8.914475h-4.456516v4.456516h11.142734v-17.827507h-11.142734zM587.226077 173.827214v4.457959h4.456516v8.914476h-4.456516v4.456515h11.142733V173.827214h-11.142733zM587.226077 260.742265v4.456515h4.456516v8.914476h-4.456516v4.456515h11.142733v-17.827506h-11.142733zM587.226077 289.712504v4.45796h4.456516v8.914475h-4.456516v4.456516h11.142733v-17.828951h-11.142733zM587.226077 200.57064v4.456515h4.456516v8.914476h-4.456516v4.457959h11.142733v-17.82895h-11.142733zM564.940611 118.113548v4.45796h4.456515v8.913031h-4.456515v4.45796h11.142733V118.113548h-11.142733zM564.940611 260.742265h11.142733v17.82895h-11.142733zM564.940611 314.227672h11.142733v17.828951h-11.142733zM564.940611 287.484247v4.456515h4.456515v8.914475h-4.456515v4.45796h11.142733v-17.82895h-11.142733zM544.883402 173.827214v4.457959h4.456516v8.914476h-4.456516v4.456515h11.142734V173.827214h-11.142734zM544.883402 202.798897v4.45796h4.456516v8.913031h-4.456516v4.45796h11.142734v-17.828951h-11.142734zM544.883402 289.712504h11.142734v17.828951h-11.142734zM544.883402 260.742265v4.456515h4.456516v8.914476h-4.456516v4.456515h11.142734v-17.827506h-11.142734zM544.883402 347.655872h11.142734v17.82895h-11.142734zM544.883402 318.684188v4.456516h4.456516v8.914475h-4.456516v4.45796h11.142734v-17.828951h-11.142734zM544.883402 405.597795h11.142734v17.82895h-11.142734zM564.940611 401.141279h11.142733v17.828951h-11.142733zM544.883402 376.626111v4.45796h4.456516v8.914475h-4.456516v4.456516h11.142734v-17.828951h-11.142734zM587.226077 376.626111v4.45796h4.456516v8.914475h-4.456516v4.456516h11.142733v-17.828951h-11.142733zM700.88311 118.113548h11.142733v17.828951h-11.142733zM700.88311 147.085232h11.142733v17.828951h-11.142733zM700.88311 231.770581h11.142733v17.828951h-11.142733zM700.88311 173.827214v4.457959h4.456515v8.914476h-4.456515v4.456515h11.142733V173.827214h-11.142733zM700.88311 260.742265v4.456515h4.456515v8.914476h-4.456515v4.456515h11.142733v-17.827506h-11.142733zM700.88311 289.712504v4.45796h4.456515v8.914475h-4.456515v4.456516h11.142733v-17.828951h-11.142733zM700.88311 200.57064v4.456515h4.456515v8.914476h-4.456515v4.457959h11.142733v-17.82895h-11.142733zM700.88311 376.626111v4.45796h4.456515v8.914475h-4.456515v4.456516h11.142733v-17.828951h-11.142733zM544.883402 463.541162h11.142734v17.828951h-11.142734zM564.940611 430.112963h11.142733v17.82895h-11.142733zM544.883402 539.312036h11.142734v17.828951h-11.142734zM564.940611 485.826628h11.142733v17.828951h-11.142733zM544.883402 434.569478v4.456516h4.456516v8.914475h-4.456516v4.45796h11.142734v-17.828951h-11.142734zM544.883402 570.511977v4.456516h4.456516v8.914475h-4.456516v4.456516h11.142734v-17.827507h-11.142734zM667.453466 91.371567h11.142734v17.82895h-11.142734zM667.453466 231.770581h11.142734v17.828951h-11.142734zM667.453466 519.254828h15.599249v2.228257h-15.599249zM667.453466 144.856974v4.456516h4.45796v8.914475h-4.45796v4.456516h11.142734v-17.827507h-11.142734zM667.453466 173.827214v4.457959h4.45796v8.914476h-4.45796v4.456515h11.142734V173.827214h-11.142734zM667.453466 202.798897v4.45796h4.45796v8.913031h-4.45796v4.45796h11.142734v-17.828951h-11.142734zM667.453466 289.712504h11.142734v17.828951h-11.142734zM667.453466 260.742265v4.456515h4.45796v8.914476h-4.45796v4.456515h11.142734v-17.827506h-11.142734zM667.453466 347.655872h11.142734v17.82895h-11.142734zM667.453466 318.684188v4.456516h4.45796v8.914475h-4.45796v4.45796h11.142734v-17.828951h-11.142734zM667.453466 405.597795h11.142734v17.82895h-11.142734zM667.453466 376.626111v4.45796h4.45796v8.914475h-4.45796v4.456516h11.142734v-17.828951h-11.142734zM667.453466 463.541162h11.142734v17.828951h-11.142734zM667.453466 539.312036h11.142734v17.828951h-11.142734zM667.453466 434.569478v4.456516h4.45796v8.914475h-4.45796v4.45796h11.142734v-17.828951h-11.142734zM667.453466 570.511977v4.456516h4.45796v8.914475h-4.45796v4.456516h11.142734v-17.827507h-11.142734zM720.938874 91.371567h11.142733v17.82895h-11.142733zM720.938874 231.770581h11.142733v17.828951h-11.142733zM720.938874 519.254828h15.599249v2.228257h-15.599249zM720.938874 144.856974v4.456516h4.45796v8.914475h-4.45796v4.456516h11.142733v-17.827507h-11.142733zM720.938874 173.827214v4.457959h4.45796v8.914476h-4.45796v4.456515h11.142733V173.827214h-11.142733zM720.938874 202.798897v4.45796h4.45796v8.913031h-4.45796v4.45796h11.142733v-17.828951h-11.142733zM720.938874 289.712504h11.142733v17.828951h-11.142733zM720.938874 260.742265v4.456515h4.45796v8.914476h-4.45796v4.456515h11.142733v-17.827506h-11.142733zM720.938874 347.655872h11.142733v17.82895h-11.142733zM720.938874 318.684188v4.456516h4.45796v8.914475h-4.45796v4.45796h11.142733v-17.828951h-11.142733zM720.938874 405.597795h11.142733v17.82895h-11.142733zM720.938874 376.626111v4.45796h4.45796v8.914475h-4.45796v4.456516h11.142733v-17.828951h-11.142733zM720.938874 463.541162h11.142733v17.828951h-11.142733zM720.938874 539.312036h11.142733v17.828951h-11.142733zM720.938874 434.569478v4.456516h4.45796v8.914475h-4.45796v4.45796h11.142733v-17.828951h-11.142733zM720.938874 570.511977v4.456516h4.45796v8.914475h-4.45796v4.456516h11.142733v-17.827507h-11.142733zM564.940611 539.312036v4.456516h4.456515v8.914475h-4.456515v4.456515h11.142733v-17.827506h-11.142733zM564.940611 568.28372v4.456515h4.456515v8.914475h-4.456515v4.456516h11.142733v-17.827506h-11.142733zM506.997244 231.770581v4.456516h4.457959v8.914475h-4.457959v4.45796h11.142733v-17.828951h-11.142733zM506.997244 345.427614v4.456515h4.457959v8.914476h-4.457959v4.456515h11.142733v-17.827506h-11.142733zM506.997244 374.397853v4.45796h4.457959v8.914475h-4.457959v4.456516h11.142733v-17.828951h-11.142733zM506.997244 432.341221v4.456515h4.457959v8.914476h-4.457959v4.456515h11.142733v-17.827506h-11.142733zM506.997244 514.796868v4.45796h4.457959v8.914475h-4.457959v4.456515h11.142733v-17.82895h-11.142733zM506.997244 539.312036v4.456516h4.457959v8.914475h-4.457959v4.456515h11.142733v-17.827506h-11.142733zM622.882534 95.828082h11.142733v17.828951h-11.142733zM622.882534 124.799766h11.142733v17.82895h-11.142733zM618.426018 155.999707h15.599249v2.228258h-15.599249zM618.426018 298.62698h15.599249v2.228257h-15.599249zM618.426018 323.140704h15.599249v2.228257h-15.599249zM622.882534 176.056916V180.513431h4.45796v8.914476h-4.45796v4.456515h11.142733v-17.827506h-11.142733zM622.882534 231.770581v4.456516h4.45796v8.914475h-4.45796v4.45796h11.142733v-17.828951h-11.142733zM622.882534 345.427614v4.456515h4.45796v8.914476h-4.45796v4.456515h11.142733v-17.827506h-11.142733zM749.910558 289.712504h11.142733v17.828951h-11.142733zM749.910558 318.684188h11.142733v17.828951h-11.142733zM745.454042 349.884129h15.599249v2.228258h-15.599249zM745.454042 492.511402h15.599249v2.228258h-15.599249zM745.454042 517.02657h15.599249v2.228258h-15.599249zM749.910558 369.941338v4.456515h4.457959v8.914476h-4.457959v4.457959h11.142733v-17.82895h-11.142733zM749.910558 425.655003v4.45796h4.457959v8.913031h-4.457959v4.45796h11.142733v-17.828951h-11.142733zM749.910558 539.312036v4.456516h4.457959v8.914475h-4.457959v4.456515h11.142733v-17.827506h-11.142733zM785.567015 95.828082h11.142733v17.828951h-11.142733zM823.453174 91.371567h11.142733v17.82895h-11.142733zM843.510382 91.371567h11.142733v17.82895h-11.142733zM843.510382 144.856974h11.142733v17.828951h-11.142733zM865.795848 118.113548h11.142733v17.828951h-11.142733zM865.795848 147.085232h11.142733v17.828951h-11.142733zM843.510382 202.798897h11.142733v17.828951h-11.142733zM865.795848 231.770581h11.142733v17.828951h-11.142733zM843.510382 340.969654h11.142733v17.828951h-11.142733zM823.453174 231.770581h11.142733v17.828951h-11.142733zM785.567015 124.799766h11.142733v17.82895h-11.142733zM785.567015 403.369537h11.142733v17.828951h-11.142733zM785.567015 461.31146h11.142733v17.828951h-11.142733zM785.567015 490.283144h11.142733v17.82895h-11.142733zM781.110499 155.999707h15.599249v2.228258h-15.599249zM841.282124 182.741689h15.599249v2.228258h-15.599249zM781.110499 298.62698h15.599249v2.228257h-15.599249zM781.110499 323.140704h15.599249v2.228257h-15.599249zM841.282124 465.76942h15.599249v2.228258h-15.599249zM823.453174 519.254828h15.599248v2.228257h-15.599248zM785.567015 176.056916V180.513431h4.457959v8.914476h-4.457959v4.456515h11.144177v-17.827506h-11.144177zM823.453174 144.856974v4.456516h4.456515v8.914475h-4.456515v4.456516h11.142733v-17.827507h-11.142733zM865.795848 173.827214v4.457959h4.456516v8.914476h-4.456516v4.456515h11.142733V173.827214h-11.142733zM865.795848 260.742265v4.456515h4.456516v8.914476h-4.456516v4.456515h11.142733v-17.827506h-11.142733zM865.795848 289.712504v4.45796h4.456516v8.914475h-4.456516v4.456516h11.142733v-17.828951h-11.142733zM865.795848 200.57064v4.456515h4.456516v8.914476h-4.456516v4.457959h11.142733v-17.82895h-11.142733zM843.510382 118.113548v4.45796h4.456516v8.913031h-4.456516v4.45796h11.142733V118.113548h-11.142733zM843.510382 260.742265h11.142733v17.82895h-11.142733zM843.510382 314.227672h11.142733v17.828951h-11.142733zM843.510382 287.484247v4.456515h4.456516v8.914475h-4.456516v4.45796h11.142733v-17.82895h-11.142733zM823.453174 173.827214v4.457959h4.456515v8.914476h-4.456515v4.456515h11.142733V173.827214h-11.142733zM823.453174 202.798897v4.45796h4.456515v8.913031h-4.456515v4.45796h11.142733v-17.828951h-11.142733zM823.453174 289.712504h11.142733v17.828951h-11.142733zM823.453174 260.742265v4.456515h4.456515v8.914476h-4.456515v4.456515h11.142733v-17.827506h-11.142733zM823.453174 347.655872h11.142733v17.82895h-11.142733zM823.453174 318.684188v4.456516h4.456515v8.914475h-4.456515v4.45796h11.142733v-17.828951h-11.142733zM823.453174 405.597795h11.142733v17.82895h-11.142733zM843.510382 401.141279h11.142733v17.828951h-11.142733zM823.453174 376.626111v4.45796h4.456515v8.914475h-4.456515v4.456516h11.142733v-17.828951h-11.142733zM865.795848 376.626111v4.45796h4.456516v8.914475h-4.456516v4.456516h11.142733v-17.828951h-11.142733zM979.452881 118.113548h11.142733v17.828951h-11.142733zM979.452881 147.085232h11.142733v17.828951h-11.142733zM979.452881 231.770581h11.142733v17.828951h-11.142733zM979.452881 173.827214v4.457959h4.456516v8.914476h-4.456516v4.456515h11.142733V173.827214h-11.142733zM979.452881 260.742265v4.456515h4.456516v8.914476h-4.456516v4.456515h11.142733v-17.827506h-11.142733zM979.452881 289.712504v4.45796h4.456516v8.914475h-4.456516v4.456516h11.142733v-17.828951h-11.142733zM979.452881 200.57064v4.456515h4.456516v8.914476h-4.456516v4.457959h11.142733v-17.82895h-11.142733zM979.452881 376.626111v4.45796h4.456516v8.914475h-4.456516v4.456516h11.142733v-17.828951h-11.142733zM823.453174 463.541162h11.142733v17.828951h-11.142733zM843.510382 430.112963h11.142733v17.82895h-11.142733zM823.453174 539.312036h11.142733v17.828951h-11.142733zM843.510382 485.826628h11.142733v17.828951h-11.142733zM823.453174 434.569478v4.456516h4.456515v8.914475h-4.456515v4.45796h11.142733v-17.828951h-11.142733zM823.453174 570.511977v4.456516h4.456515v8.914475h-4.456515v4.456516h11.142733v-17.827507h-11.142733zM946.024682 91.371567h11.142733v17.82895h-11.142733zM946.024682 231.770581h11.142733v17.828951h-11.142733zM946.024682 519.254828h15.599248v2.228257h-15.599248zM946.024682 144.856974v4.456516h4.456515v8.914475h-4.456515v4.456516h11.142733v-17.827507h-11.142733zM946.024682 173.827214v4.457959h4.456515v8.914476h-4.456515v4.456515h11.142733V173.827214h-11.142733zM946.024682 202.798897v4.45796h4.456515v8.913031h-4.456515v4.45796h11.142733v-17.828951h-11.142733zM946.024682 289.712504h11.142733v17.828951h-11.142733zM946.024682 260.742265v4.456515h4.456515v8.914476h-4.456515v4.456515h11.142733v-17.827506h-11.142733zM946.024682 347.655872h11.142733v17.82895h-11.142733zM946.024682 318.684188v4.456516h4.456515v8.914475h-4.456515v4.45796h11.142733v-17.828951h-11.142733zM946.024682 405.597795h11.142733v17.82895h-11.142733zM946.024682 376.626111v4.45796h4.456515v8.914475h-4.456515v4.456516h11.142733v-17.828951h-11.142733zM946.024682 463.541162h11.142733v17.828951h-11.142733zM946.024682 539.312036h11.142733v17.828951h-11.142733zM946.024682 434.569478v4.456516h4.456515v8.914475h-4.456515v4.45796h11.142733v-17.828951h-11.142733zM946.024682 570.511977v4.456516h4.456515v8.914475h-4.456515v4.456516h11.142733v-17.827507h-11.142733zM999.510089 91.371567h11.142733v17.82895h-11.142733zM999.510089 231.770581h11.142733v17.828951h-11.142733zM999.510089 519.254828h15.599249v2.228257H999.510089zM999.510089 144.856974v4.456516h4.456516v8.914475h-4.456516v4.456516h11.142733v-17.827507h-11.142733zM999.510089 173.827214v4.457959h4.456516v8.914476h-4.456516v4.456515h11.142733V173.827214h-11.142733zM999.510089 202.798897v4.45796h4.456516v8.913031h-4.456516v4.45796h11.142733v-17.828951h-11.142733zM999.510089 289.712504h11.142733v17.828951h-11.142733zM999.510089 260.742265v4.456515h4.456516v8.914476h-4.456516v4.456515h11.142733v-17.827506h-11.142733zM999.510089 347.655872h11.142733v17.82895h-11.142733zM999.510089 318.684188v4.456516h4.456516v8.914475h-4.456516v4.45796h11.142733v-17.828951h-11.142733zM999.510089 405.597795h11.142733v17.82895h-11.142733zM999.510089 376.626111v4.45796h4.456516v8.914475h-4.456516v4.456516h11.142733v-17.828951h-11.142733zM999.510089 463.541162h11.142733v17.828951h-11.142733zM999.510089 539.312036h11.142733v17.828951h-11.142733zM999.510089 434.569478v4.456516h4.456516v8.914475h-4.456516v4.45796h11.142733v-17.828951h-11.142733zM999.510089 570.511977v4.456516h4.456516v8.914475h-4.456516v4.456516h11.142733v-17.827507h-11.142733zM843.510382 539.312036v4.456516h4.456516v8.914475h-4.456516v4.456515h11.142733v-17.827506h-11.142733zM843.510382 568.28372v4.456515h4.456516v8.914475h-4.456516v4.456516h11.142733v-17.827506h-11.142733zM785.567015 231.770581v4.456516h4.457959v8.914475h-4.457959v4.45796h11.144177v-17.828951h-11.144177zM785.567015 345.427614v4.456515h4.457959v8.914476h-4.457959v4.456515h11.144177v-17.827506h-11.144177zM785.567015 374.397853v4.45796h4.457959v8.914475h-4.457959v4.456516h11.144177v-17.828951h-11.144177zM785.567015 432.341221v4.456515h4.457959v8.914476h-4.457959v4.456515h11.144177v-17.827506h-11.144177zM785.567015 514.796868v4.45796h4.457959v8.914475h-4.457959v4.456515h11.144177v-17.82895h-11.144177zM785.567015 539.312036v4.456516h4.457959v8.914475h-4.457959v4.456515h11.144177v-17.827506h-11.144177zM901.452305 95.828082h11.142733v17.828951h-11.142733zM901.452305 124.799766h11.142733v17.82895h-11.142733zM896.99579 155.999707h15.599248v2.228258h-15.599248zM896.99579 298.62698h15.599248v2.228257h-15.599248zM896.99579 323.140704h15.599248v2.228257h-15.599248zM901.452305 176.056916V180.513431h4.45796v8.914476h-4.45796v4.456515h11.142733v-17.827506h-11.142733zM901.452305 231.770581v4.456516h4.45796v8.914475h-4.45796v4.45796h11.142733v-17.828951h-11.142733zM901.452305 345.427614v4.456515h4.45796v8.914476h-4.45796v4.456515h11.142733v-17.827506h-11.142733zM1028.480329 289.712504h11.142733v17.828951h-11.142733zM1028.480329 318.684188h11.142733v17.828951h-11.142733zM1024.023813 349.884129h15.599249v2.228258h-15.599249zM1024.023813 492.511402h15.599249v2.228258h-15.599249zM1024.023813 517.02657h15.599249v2.228258h-15.599249zM1028.480329 369.941338v4.456515h4.45796v8.914476h-4.45796v4.457959h11.142733v-17.82895h-11.142733zM1028.480329 425.655003v4.45796h4.45796v8.913031h-4.45796v4.45796h11.142733v-17.828951h-11.142733zM1028.480329 539.312036v4.456516h4.45796v8.914475h-4.45796v4.456515h11.142733v-17.827506h-11.142733z" fill="#669074" p-id="10887"></path><path d="M309.667181 1020.311013h1195.149102v3.688251H309.667181zM556.703422 583.910406v75.093588l10.108752 46.211438s-1.444107 28.882149 0 37.546794-1.444107 23.105719-10.108752 23.105719-12.996967 21.661612-12.996967 21.661612-2.888215 8.664645-10.108752 10.108752-7.220537 0-7.220537 0l-5.77643 14.441074-119.860919 79.42591 23.10572 57.764298s36.102686-12.996967 38.990901-17.329289 27.438042 5.77643 27.438041-4.332323 4.332322-36.102686 12.996967-37.546793 80.870017-34.658579 80.870018-34.658579 37.546794-41.879116 40.435008-57.764298 15.885182-60.652513 15.885182-60.652513l36.102686 60.652513v121.305026l-5.776429 64.984835 63.540727-8.664645s-5.77643-40.435009 0-46.211438 14.441074-75.093587 8.664645-83.758232 2.888215-47.655546 0-53.431976-1.444107-47.655546-8.664645-59.208405-50.543761-129.96967-50.54376-129.969671z" fill="#2F2E41" p-id="10888"></path><path d="M679.452555 981.039955s-21.661612 36.102686-7.220537 40.435009 41.879116 0 44.767331 0 54.876083 1.444107 54.876083 1.444107 34.658579-7.220537 34.658579-17.329289-21.661612-10.108752-28.882149-11.55286-51.987868-18.773397-51.987868-18.773397zM407.372603 893.134246s-41.739038-5.528043-39.974338 9.444463 16.646227 38.430587 17.792847 41.080525c0.778374 1.795026 9.899357 24.518056 15.706113 38.999566a84.445627 84.445627 0 0 0 18.535119 28.379599c5.676786 5.673898 11.864787 10.224281 15.922729 8.465358 9.276946-4.017507 0.667178-23.895646-0.878017-31.094522s-3.436976-55.167793-3.436976-55.167792z" fill="#2F2E41" p-id="10889"></path><path d="M697.503898 344.910623l46.211439-106.863951s-4.332322-10.108752-14.441075-8.664645c0 0-13.719021-35.380633-39.712955-35.380632 0 0-38.990901-21.661612-50.54376 0 0 0-24.549827 21.661612-23.10572 41.879116s2.888215 34.658579 2.888215 34.658579-23.105719 2.888215-18.773397 14.441074 5.77643 11.55286 0 15.885182l-5.776429 4.332322s-119.860918 108.308059-53.431976 267.159879l5.77643 24.549826v23.10572s145.854852 1.444107 145.854852 0-2.888215-10.108752 2.888215-15.885182 5.77643-14.441074 5.77643-14.441075-5.77643-28.882149-2.888215-37.546794 4.332322-46.211438-1.444107-54.876083-2.888215-77.981802-2.888215-77.981802l12.996967-24.549827-4.332323-14.441074-4.332322-14.441075z" fill="#8985A8" p-id="10890"></path><path d="M685.228985 634.454167s-17.329289-47.655546-15.885182-56.32019-2.888215-25.993934-2.888215-25.993935l-5.77643-116.972703s24.549827-103.975736-30.326256-121.305026c0 0-13.885093 6.058031-25.263216 25.55637-11.249597 5.011053-24.902189 17.693204-28.16876 49.537218-5.77643 56.320191 20.217504 200.730936 33.214472 225.280762s21.661612 41.879116 21.661611 41.879116l13.583275-6.037813c0.561758 1.111963 0.8578 1.704047 0.8578 1.704046z" opacity=".1" p-id="10891"></path><path d="M693.171576 327.581334m-4.332322 0a4.332322 4.332322 0 1 0 8.664644 0 4.332322 4.332322 0 1 0-8.664644 0Z" fill="#F2F2F2" p-id="10892"></path><path d="M691.727469 327.581334h2.888214v67.87305h-2.888214z" fill="#3F3D56" p-id="10893"></path><path d="M641.183708 639.508543l11.552859 24.549827s25.993934-8.664645 25.993934-12.996967-11.55286-23.105719-11.552859-23.105719z" fill="#FFB8B8" p-id="10894"></path><path d="M624.576472 313.862313s-33.214471 14.441074-38.990901 70.761265 20.217504 200.730936 33.214471 225.280762 21.661612 41.879116 21.661612 41.879116l38.990901-17.329289s-17.329289-47.655546-15.885182-56.32019-2.888215-25.993934-2.888215-25.993935l-5.776429-116.972703s24.549827-103.975736-30.326257-121.305026z" fill="#8985A8" p-id="10895"></path></svg>